<svg xmlns="http://www.w3.org/2000/svg" width="533.333" height="533.333" viewBox="0 0 533.333 533.333"><path d="M533.333 266.667C533.333 119.391 413.942 0 266.667 0 119.391 0 0 119.391 0 266.667c0 147.275 119.391 266.666 266.667 266.666 147.275 0 266.666-119.391 266.666-266.666zm-483.333 0C50 147.005 147.005 50 266.667 50c119.661 0 216.667 97.005 216.667 216.667 0 119.661-97.006 216.666-216.667 216.666C147.005 483.333 50 386.328 50 266.667zM290.236 423.57L423.57 290.236c13.018-13.017 13.018-34.122 0-47.139-13.018-13.018-34.123-13.018-47.141 0L300 319.526V133.333C300 114.924 285.076 100 266.667 100s-33.333 14.924-33.333 33.333v186.193l-76.429-76.431c-13.018-13.018-34.124-13.018-47.142 0-6.508 6.51-9.762 15.041-9.762 23.571s3.254 17.062 9.762 23.569L243.096 423.57c13.018 13.018 34.123 13.018 47.14 0z"/></svg>